<svg xmlns="http://www.w3.org/2000/svg" viewBox="0 0 128 128" width="128" height="128">
  <rect x="0" y="0" width="128" height="8" fill="#d4944c" rx="2"/>

  <g transform="translate(14, 20)">

    <rect x="0" y="80" width="20" height="20" rx="3" fill="#2d6a5a" opacity="0.4"/>
    <rect x="0" y="55" width="20" height="20" rx="3" fill="#2d6a5a" opacity="0.6"/>
    <rect x="0" y="30" width="20" height="20" rx="3" fill="#2d6a5a" opacity="0.8"/>
    <rect x="0" y="5" width="20" height="20" rx="3" fill="#2d6a5a"/>

    <line x1="10" y1="105" x2="10" y2="0" stroke="#d4944c" stroke-width="3" stroke-linecap="round"/>
    <polygon points="10,0 6,6 14,6" fill="#d4944c"/>
    <g transform="translate(45, 10)">
      <circle cx="35" cy="35" r="30" stroke="#2d6a5a" stroke-width="4" fill="none"/>

      <circle cx="20" cy="20" r="3" fill="#2d6a5a"/>
      <circle cx="50" cy="20" r="3" fill="#2d6a5a"/>
      <circle cx="35" cy="50" r="3" fill="#2d6a5a"/>
      <line x1="20" y1="20" x2="35" y2="50" stroke="#2d6a5a" stroke-width="2"/>
      <line x1="50" y1="20" x2="35" y2="50" stroke="#2d6a5a" stroke-width="2"/>
      <line x1="20" y1="20" x2="50" y2="20" stroke="#2d6a5a" stroke-width="2"/>

      <g transform="translate(15, 15) scale(0.6)">
        <circle cx="20" cy="20" r="15" stroke="#d4944c" stroke-width="6" fill="white" fill-opacity="0.7"/>
        <line x1="31" y1="31" x2="45" y2="45" stroke="#d4944c" stroke-width="6" stroke-linecap="round"/>
      </g>
    </g>
  </g>
</svg>
